<svg id="Layer_1" data-name="Layer 1" xmlns="http://www.w3.org/2000/svg" viewBox="0 0 138.57 78.36"><title>logo</title><path d="M86.75,4.33a1.83,1.83,0,0,1,.39-3.21,8.33,8.33,0,0,1,8.71,4.75,9.76,9.76,0,0,1,.78,5.38,23.74,23.74,0,0,1,11.76,12.39,23.15,23.15,0,0,1-.77,19.26A23.42,23.42,0,0,1,92.75,55a23.13,23.13,0,0,1-23.07-6.7c.06-1.1,1.2-2.12,1.86-3A22.89,22.89,0,0,0,79.86,51a19.82,19.82,0,0,0,18.93-2.9,19.67,19.67,0,0,0-3.5-33.34c-1,.58-1.67,1.52-2.62,2.13a8.55,8.55,0,0,1-8,.61,9.88,9.88,0,0,1-4.2-3.76,21,21,0,0,0-9.29,6.42c-.73-1-1.45-2-2.17-3A23.89,23.89,0,0,1,83.39,9.29a26,26,0,0,1,9.73.55,5.35,5.35,0,0,0-2.2-4.38C89.71,4.54,88.12,4.78,86.75,4.33Zm-2.26,8.9c2,1.51,4.93,1.86,6.87.09C89.17,12.78,86.6,12.21,84.49,13.23Z" transform="translate(-0.23 -1)" style="fill:#68aade"/><path d="M74.55,39.45a1.56,1.56,0,0,1,1.86.16,25,25,0,0,0,3.12,3A12.55,12.55,0,0,0,95,41.72a20.41,20.41,0,0,1,2.5-2.41c1.52-.58,3.15,1.56,2,2.82a16,16,0,0,1-25.53,0A1.85,1.85,0,0,1,74.55,39.45Z" transform="translate(-0.23 -1)" style="fill:#68aade"/><path d="M134,57.78a2.18,2.18,0,1,1,.05,3.75A2.23,2.23,0,0,1,134,57.78Z" transform="translate(-0.23 -1)" style="fill:#68aade"/><path d="M134.85,63.1a5.7,5.7,0,0,1,3.42-.89c.64.44.42,1.32.52,2a56.31,56.31,0,0,1-.16,6.55,5,5,0,0,1-4.79,4c-4.19.14-8.39,0-12.58.07a6.15,6.15,0,0,1-1.48,2.81c-1.73,1.56-4.22,1.88-6.46,1.69A6.38,6.38,0,0,1,108,76a10.13,10.13,0,0,1,.23-8.37,8.1,8.1,0,0,1,3.09-2.05c.65-.36,1.63.2,1.19,1-.69,2.29-1.86,4.72-1,7.14.91,2.18,4,2,5.68,1-1.06-.68-2.58-1.34-2.63-2.8A5.34,5.34,0,0,1,116.2,69c1.38-.26,1.42,2.13,2.88,1.86,4.5,0,9-.07,13.52,0,.64-.05,1.66.14,1.89-.68C134.93,67.87,134.3,65.44,134.85,63.1Z" transform="translate(-0.23 -1)" style="fill:#68aade"/><path d="M50.31,1.61a7.39,7.39,0,0,1,5,.9,8.86,8.86,0,0,1,4.41,9.21A23.87,23.87,0,0,1,71.26,23.51a23.32,23.32,0,0,1-.35,19.6,23.36,23.36,0,0,1-42,.18,23.29,23.29,0,0,1-.8-18.9A23.53,23.53,0,0,1,42.68,10.69a25.36,25.36,0,0,1,13.6-.35,5.56,5.56,0,0,0-2.07-4.28c-1.16-1-2.76-.77-4.13-1.18A1.79,1.79,0,0,1,50.31,1.61ZM47.55,13.36a5,5,0,0,0,7,.43A18.71,18.71,0,0,0,47.55,13.36ZM36.49,18.43A19.74,19.74,0,1,0,69.11,28.55,20,20,0,0,0,58.37,15.09a9.23,9.23,0,0,1-7.76,3.56,9.34,9.34,0,0,1-7.06-4.46A20.67,20.67,0,0,0,36.49,18.43Z" transform="translate(-0.23 -1)" style="fill:#dd7083"/><path d="M26.57,65C29,61.8,34.42,61,37.5,63.77c2.2,2.25,2.07,5.68,2.14,8.6,0,.91.1,2.56-1.26,2.38-8,.16-16.06-.08-24.09,0a5.23,5.23,0,0,1-3,3.79C8.22,79.83,4,79.73,1.72,77c-2.11-2.73-1.75-6.7-.28-9.63,1.11-.81,2.4-2.06,3.87-1.82l.35.62c-.63,2.45-2,5-1.1,7.53.9,2.19,4,2,5.69,1C9.18,74.06,7.7,73.42,7.61,72a5.45,5.45,0,0,1,1.66-3c1.38-.18,1.41,2.15,2.85,1.88,7.78-.1,15.56.11,23.34,0a12,12,0,0,0-.59-3.69A2.36,2.36,0,0,0,32.23,66C31,66.19,30.17,67.4,29,67.78,27.94,67.25,26.48,66.37,26.57,65Z" transform="translate(-0.23 -1)" style="fill:#6aa9dc"/><path d="M51.8,63.38c.55-.92,1.94-1,2.94-1.21.72-.23,1.11.57,1.08,1.16.11,2.5,0,5,0,7.5,3.78.09,7.56.07,11.34.05-.19-1.63.12-4.11-1.81-4.79-1.77-.65-3.11.91-4.52,1.66-1.16-.32-2.54-1.43-2.58-2.73,2.6-3.31,8.31-4.13,11.29-.91,2.07,2.66,1.8,6.29,1.78,9.47.1.82-.75,1.19-1.44,1.12-4.72.06-9.45,0-14.18,0a6.35,6.35,0,0,1-3,3.86,6.84,6.84,0,0,1-6.3,0,5.38,5.38,0,0,1-1.42-3.29c.06-1,1.22-.46,1.76-.34,1.29.36,2.82.94,4.06.16,1.08-.84.72-2.36.79-3.53A81,81,0,0,1,51.8,63.38Z" transform="translate(-0.23 -1)" style="fill:#6aa9dc"/><path d="M31.48,75.34a2.23,2.23,0,0,1,3.24,1.13,2.18,2.18,0,0,1-2.86,2.73A2.21,2.21,0,0,1,31.48,75.34Z" transform="translate(-0.23 -1)" style="fill:#6aa9dc"/><path d="M100.36,57.79a2.19,2.19,0,1,1,.32,3.86A2.23,2.23,0,0,1,100.36,57.79Z" transform="translate(-0.23 -1)" style="fill:#e76c81"/><path d="M101.23,63.13a6.9,6.9,0,0,1,3.06-1c1.17.15.79,1.61.9,2.43-.18,2.53.46,5.27-.69,7.63a5.32,5.32,0,0,1-4.68,2.54c-4.06.08-8.11,0-12.17,0a5.23,5.23,0,0,1-3,3.82c-3,1.2-7,1.12-9.37-1.32-2.32-2.69-2-6.81-.49-9.82,1.11-.84,2.41-2.07,3.89-1.86l.35.61c-.62,2.45-2,5-1.1,7.54.9,2.19,3.95,2,5.69,1C82.55,74.07,81,73.41,81,72a5.9,5.9,0,0,1,1.64-3C84,68.8,84,71.08,85.45,70.86c4.65,0,9.31-.05,14,0,.53,0,1.33,0,1.5-.67C101.31,67.87,100.73,65.46,101.23,63.13Z" transform="translate(-0.23 -1)" style="fill:#e76c81"/><path d="M94.26,25.09a2.89,2.89,0,1,1-1.56,4.4A2.92,2.92,0,0,1,94.26,25.09Z" transform="translate(-0.23 -1)" style="fill:#68aadf"/><path d="M77.84,25a2.88,2.88,0,1,1-1.74,4.63A2.91,2.91,0,0,1,77.84,25Z" transform="translate(-0.23 -1)" style="fill:#67aadf"/><path d="M40.15,25.82a2.9,2.9,0,1,1-.06,5.1A2.93,2.93,0,0,1,40.15,25.82Z" transform="translate(-0.23 -1)" style="fill:#de7083"/><path d="M56.91,25.81a2.89,2.89,0,1,1-.07,5.11A2.91,2.91,0,0,1,56.91,25.81Z" transform="translate(-0.23 -1)" style="fill:#df7082"/><path d="M37.58,40c1.26-.84,2.4.39,3.15,1.29A12.36,12.36,0,0,0,54,44.64a12.86,12.86,0,0,0,5.7-4.11,1.8,1.8,0,1,1,2.76,2.32,16,16,0,0,1-25.33-.05A1.83,1.83,0,0,1,37.58,40Z" transform="translate(-0.23 -1)" style="fill:#dd7183"/><path d="M43,57.77a7.5,7.5,0,0,1,1.5-.29c.84.4.65,1.43.71,2.19q0,6.34,0,12.68a4.79,4.79,0,0,1-.3,2.11,5.67,5.67,0,0,1-3.11.17c-.86-.17-.7-1.23-.75-1.87,0-4.09,0-8.18,0-12.26a5.12,5.12,0,0,1,.24-2A5,5,0,0,1,43,57.77Z" transform="translate(-0.23 -1)" style="fill:#6ba9dc"/></svg>